<?xml version="1.0" encoding="UTF-8" standalone="no"?>
<svg width="200px" height="48px" viewBox="0 0 200 48" version="1.1" xmlns="http://www.w3.org/2000/svg" xmlns:xlink="http://www.w3.org/1999/xlink" xmlns:sketch="http://www.bohemiancoding.com/sketch/ns">
    <!-- Generator: Sketch 3.3.2 (12043) - http://www.bohemiancoding.com/sketch -->
    <title>wharton-cai-logo</title>
    <desc>Created with Sketch.</desc>
    <defs></defs>
    <g id="Page-1" stroke="none" stroke-width="1" fill="none" fill-rule="evenodd" sketch:type="MSPage">
        <g id="wharton-cai-logo" sketch:type="MSLayerGroup">
            <g id="Group" sketch:type="MSShapeGroup">
                <path d="M118.519186,28.4711776 L118.519186,22.2704299 C116.494587,23.1368972 111.271308,24.3934206 111.271308,27.0841121 C111.271308,28.8661682 112.62293,30.3434019 114.51307,30.3434019 C116.224308,30.3434019 117.2145,29.4269159 118.519186,28.4711776 L118.519186,28.4711776 Z M118.578593,21.1944673 L118.578593,16.4615327 C118.578593,14.7241121 117.454622,14.2622804 115.789413,14.2622804 C114.168645,14.2622804 111.837262,15.3442991 111.828419,16.2861308 C111.825924,16.547215 111.934762,16.8670654 111.934762,17.301757 C111.934762,18.9514766 111.514151,20.0669159 109.57957,20.0669159 C108.769186,20.0669159 108.229762,19.2836636 108.229762,18.588785 C108.229762,17.6319252 108.904779,16.7217196 109.849849,15.9391402 C111.87286,14.2903178 115.113715,12.942729 117.768209,12.942729 C120.515669,12.942729 121.998349,14.5505047 121.998349,17.1561869 L121.998349,28.7934953 C121.998349,29.5330093 121.998349,30.8368598 123.033663,30.8368598 C123.752895,30.8368598 124.158541,29.9246355 124.293227,29.3602991 L125.013366,29.3602991 C124.787529,31.4440374 123.890302,32.6599626 121.729884,32.6599626 C120.063087,32.6599626 118.668837,31.182729 118.622808,29.6644486 C116.508645,31.182729 115.068366,32.6599626 112.278506,32.6599626 C110.208558,32.6599626 108.273297,31.0548785 108.273297,28.9677757 C108.273297,24.192 114.935721,22.7154393 118.578593,21.1944673 L118.578593,21.1944673 Z" id="Fill-1" fill="#FFFFFF"></path>
                <path d="M157.66793,22.7838505 C157.66793,26.1299439 158.928401,31.656 163.335855,31.656 C167.61293,31.656 169.097424,27.2610841 169.097424,23.8290841 C169.097424,20.136 168.557093,13.8275888 163.382791,13.8275888 C158.971709,13.8275888 157.66793,19.5297196 157.66793,22.7838505 L157.66793,22.7838505 Z M153.842529,22.6122617 C153.842529,17.3569346 157.66793,12.8839626 163.246291,12.8839626 C169.14164,12.8839626 172.923733,17.2692336 172.923733,22.7838505 C172.923733,28.4317009 169.230297,32.6014206 163.293227,32.6014206 C157.262285,32.6014206 153.842529,28.1275514 153.842529,22.6122617 L153.842529,22.6122617 Z" id="Fill-2" fill="#FFFFFF"></path>
                <path d="M44.4863023,3.08680374 L44.4863023,2.07745794 L54.7156395,2.07745794 L54.7156395,3.08680374 C52.826407,3.12964486 52.1062674,3.12269159 52.1062674,4.25024299 C52.1062674,4.2948785 52.1364244,4.59633645 52.3169128,5.03013084 L58.4861686,25.749757 L67.159814,1.08829907 L67.8747384,1.08829907 L75.4448198,25.4440374 C75.4448198,25.4440374 81.4306395,7.63850467 81.4306395,5.11850467 C81.4306395,3.12269159 80.1570174,3.25928972 78.5360233,3.08680374 L78.5360233,2.07745794 L84.8052733,2.06960748 C87.5661105,2.06960748 90.3800058,1.14257944 91.9794593,0.191102804 L91.9794593,15.942729 C93.9201628,14.2315514 95.5790233,12.8586168 98.3700174,12.8586168 C100.438151,12.8586168 102.375227,13.771514 103.410541,15.5082617 C104.354703,17.0274393 104.535419,18.4609346 104.535419,20.1546168 L104.535419,28.8836636 C104.535419,31.1425794 105.119285,31.1425794 107.099669,31.2722243 L107.099669,32.0976449 L98.5498256,32.0976449 L98.5498256,31.2722243 C100.39575,31.1425794 100.980297,31.1425794 100.980297,28.8836636 L100.980297,20.1546168 C100.980297,18.7639626 100.980297,18.156785 100.349494,16.8531589 C99.6286744,15.593271 98.3468895,14.3753271 96.7048081,14.6391028 C94.225814,15.0358879 93.2719012,16.1811589 91.9794593,17.3973084 L91.9794593,28.8836636 C91.9794593,31.1425794 92.5649128,31.1425794 94.4550523,31.2722243 L94.4550523,32.0976449 L85.8149651,32.0976449 L85.8149651,31.2722243 C87.8404709,31.1425794 88.4243372,31.1425794 88.4243372,28.8836636 L88.4243372,3.35304673 C88.4755814,3.31446729 87.7236977,3.34519626 86.806064,3.36358879 C83.3543372,3.58093458 83.263186,6.17428037 82.1657442,9.2882243 L74.4113198,32.6521121 L73.600936,32.6521121 L65.9492267,9.23214953 L57.0867035,32.6521121 L56.3214419,32.6521121 L48.1461802,6.94362617 C47.6573198,5.60142056 47.4260407,4.46848598 46.7049942,3.72986916 C46.3011628,3.34003738 46.2816628,3.08231776 44.4863023,3.08680374" id="Fill-3" fill="#FFFFFF"></path>
                <path d="M181.968558,32.1220935 L181.968558,31.2993645 C180.031483,31.1661308 179.44875,31.1661308 179.44875,28.9083364 L179.44875,18.6168224 C179.44875,16.6183178 182.147459,14.7940935 184.084535,14.7940935 C187.008401,14.7940935 188.58314,16.6183178 188.58314,19.3554393 L188.58314,28.9083364 C188.58314,31.1661308 187.9995,31.1661308 185.973087,31.2993645 L185.973087,32.1220935 L194.88164,32.1220935 L194.88164,31.2993645 C193.354517,31.1661308 192.137581,31.1661308 192.137581,28.9083364 L192.137581,18.6168224 C192.137581,15.3593271 188.80807,12.8839626 185.569029,12.8839626 C182.732913,12.8839626 181.29286,14.181757 179.44875,16.005757 L179.44875,12.8839626 C177.513488,13.5788411 175.463041,14.5872897 173.352279,14.8667664 L173.352279,15.5555888 C175.227453,15.7500561 175.893401,16.344 175.893401,17.9939439 L175.893401,28.9083364 C175.893401,31.1661308 175.308855,31.1661308 173.284256,31.2993645 L173.284256,32.1220935 L181.968558,32.1220935" id="Fill-4" fill="#FFFFFF"></path>
                <path d="M134.952924,32.1220935 L134.952924,31.2993645 C132.660767,31.1661308 132.07418,31.1661308 132.07418,28.9083364 L132.07418,17.4015701 C132.07418,16.7060187 133.240779,15.6255701 134.504651,15.6071776 C135.674651,15.5914766 135.879401,16.9469159 137.345983,16.9469159 C139.147692,16.9469159 139.590523,15.9961121 139.590523,14.6967477 C139.590523,13.3493832 138.123715,12.5791402 136.483448,12.5791402 C134.549093,12.5791402 133.053942,14.2420935 131.98575,15.7009346 L131.98575,12.7543178 C129.943238,13.6795514 127.735203,14.5426542 125.720128,14.8589159 L125.720128,15.5537944 C127.728855,15.7588037 128.519058,16.2300561 128.519058,17.9203738 L128.519058,28.9083364 C128.519058,31.1661308 127.934512,31.1661308 125.999023,31.2993645 L125.999023,32.1220935 L134.952924,32.1220935" id="Fill-5" fill="#FFFFFF"></path>
                <path d="M153.735506,13.9469159 L154.388302,11.5574579 L146.645215,11.5574579 L146.645215,7.68672897 L146.19082,7.68672897 C144.382308,9.8148785 142.637285,11.6171215 140.550558,13.4440374 L140.550558,13.9469159 L143.009372,13.9469159 L143.009372,27.0349907 C143.009372,30.1419813 144.423802,32.7205234 147.826779,32.7205234 C150.749738,32.7205234 152.973645,30.6177196 154.181058,29.2131589 L153.646849,28.4781308 C152.584099,29.6530093 151.181006,30.3321869 149.906477,30.3321869 C147.305948,30.3321869 146.645215,28.9460187 146.645215,26.5565607 L146.645215,13.9469159 L153.735506,13.9469159" id="Fill-6" fill="#FFFFFF"></path>
                <path d="M49.6476802,37.6869533 L49.6476802,38.0592897 L49.6934826,38.0637757 C50.2494593,38.1205234 50.5285814,38.2921121 50.5718895,38.603215 L50.593657,38.7474393 L50.6360581,39.1682243 L50.6360581,42.1217944 C50.6360581,43.8130093 49.8571919,44.7442991 48.4429884,44.7442991 C47.0909128,44.7442991 46.4877733,43.9514019 46.4877733,42.1733832 L46.4877733,38.9434766 C46.4864128,38.1671776 46.4864128,38.1671776 47.23875,38.0788037 L47.4110756,38.0583925 L47.4108488,37.6869533 L44.421907,37.6869533 L44.421907,38.0583925 L44.5940058,38.0788037 C45.34725,38.1669533 45.34725,38.1669533 45.3456628,38.9412336 L45.3456628,42.2269907 C45.3456628,44.3840748 46.2846105,45.3458692 48.3897035,45.3458692 C49.7318023,45.3458692 51.2990581,44.5119252 51.2990581,42.1621682 L51.2990581,39.1682243 L51.3396453,38.7436262 L51.3598256,38.6023178 C51.403814,38.2865047 51.6745465,38.1202991 52.2370988,38.0637757 L52.2831279,38.0592897 L52.2831279,37.6869533 L49.6476802,37.6869533" id="Fill-7" fill="#FFFFFF"></path>
                <path d="M57.2728605,39.3831028 L57.2728605,39.6926355 L57.3200233,39.6962243 C57.876,39.7390654 58.1070523,39.8534579 58.1431047,40.1033271 C58.1431047,40.1026542 58.1589767,40.2109907 58.1589767,40.2109907 L58.1914012,40.5402617 L58.1914012,43.7834019 C58.0542209,43.6203364 54.514064,39.4014953 54.514064,39.4014953 L52.9168779,39.3831028 L52.9168779,39.6964486 L52.9681221,39.6964486 C53.4263721,39.6964486 53.67375,39.9620187 53.8877965,40.2340935 L53.8769128,44.0615327 L53.8465291,44.3706168 L53.8286163,44.4966729 C53.7941512,44.7362243 53.5887209,44.8618318 53.1624419,44.9024299 L53.116186,44.9066916 L53.116186,45.2171215 L55.2466744,45.2171215 L55.2466744,44.9053458 L55.1990581,44.9022056 C54.6494302,44.8642991 54.4108953,44.7463178 54.37575,44.4953271 C54.3759767,44.4964486 54.3567035,44.3663551 54.3567035,44.3663551 L54.3256395,44.0615327 L54.3256395,40.5788411 C54.4929767,40.7748785 56.6781105,43.3334579 56.6781105,43.3334579 L58.2834593,45.2173458 L58.6417151,45.2171215 L58.6417151,40.5402617 L58.6743663,40.2141308 L58.6909186,40.1024299 C58.7226628,39.8678131 58.9285465,39.7424299 59.3577733,39.6962243 L59.4033488,39.6910654 L59.4033488,39.3831028 L57.2728605,39.3831028" id="Fill-8" fill="#FFFFFF"></path>
                <path d="M60.8297965,39.3831028 L60.8297965,39.6906168 L60.9721919,39.7074393 C61.5431337,39.774729 61.5431337,39.774729 61.542,40.3668785 L61.542,44.2340187 C61.5431337,44.8243738 61.5431337,44.8243738 60.9726453,44.8909907 L60.8295698,44.9078131 L60.8297965,45.2171215 L63.1580058,45.2171215 L63.1580058,44.9078131 L63.016064,44.891215 C62.4462558,44.8248224 62.4462558,44.8248224 62.4476163,44.2429907 L62.4476163,40.3579065 C62.4462558,39.7745047 62.4462558,39.7745047 63.0162907,39.7074393 L63.1582326,39.6906168 L63.1580058,39.3831028 L60.8297965,39.3831028" id="Fill-9" fill="#FFFFFF"></path>
                <path d="M68.3629186,39.3831028 L68.3629186,39.6964486 L68.4141628,39.6964486 C68.690564,39.6964486 68.8733198,39.7583551 68.9569884,39.8808224 C68.9934942,39.9339813 69.0118605,39.9997009 69.0118605,40.077757 C69.0118605,40.1683738 68.9871453,40.2753645 68.9377151,40.3978318 L68.5615465,41.3217196 C68.5615465,41.3217196 67.5355291,43.8096449 67.4409767,44.0393271 C67.3591221,43.7995514 66.2501163,40.547215 66.2501163,40.547215 C66.1866279,40.3639626 66.1551105,40.2107664 66.1551105,40.0885234 C66.1551105,39.9893832 66.1757442,39.9106542 66.2176919,39.8530093 C66.2959186,39.7446729 66.4496512,39.6964486 66.7160756,39.6964486 L66.7673198,39.6964486 L66.7673198,39.3831028 L64.4143953,39.3831028 L64.4143953,39.6964486 L64.4656395,39.6964486 C64.8014477,39.6964486 65.0578953,39.8761121 65.3744302,40.7950654 C65.374657,40.7957383 66.9614128,45.2171215 66.9614128,45.2171215 L67.4554884,45.2171215 L69.5614884,40.1582804 C69.7378953,39.7442243 70.0118023,39.6964486 70.2022674,39.6964486 L70.2535116,39.6964486 L70.2535116,39.3831028 L68.3629186,39.3831028" id="Fill-10" fill="#FFFFFF"></path>
                <path d="M71.426686,39.3831028 L71.426686,39.6906168 L71.5690814,39.7074393 C72.1407035,39.774729 72.1407035,39.774729 72.1395698,40.3646355 L72.1395698,44.2362617 C72.1407035,44.8245981 72.1407035,44.8245981 71.5695349,44.8909907 L71.4264593,44.9078131 L71.426686,45.2171215 L75.5971919,45.2171215 L75.8606686,43.6420935 L75.5513895,43.6420935 L75.3996977,44.009271 C75.1536802,44.6238505 75.0618488,44.8539813 74.0614535,44.8539813 C73.3082093,44.8539813 73.0445058,44.7963364 73.0445058,44.1519252 L73.0445058,42.3528224 L73.6893663,42.3528224 C74.1698372,42.3528224 74.3825233,42.5681495 74.3999826,43.0723738 L74.4017965,43.121271 L74.7174244,43.121271 L74.7174244,41.2748411 L74.4015698,41.2748411 L74.3999826,41.323514 C74.3841105,41.8010467 74.1850291,41.9869907 73.6893663,41.9869907 L73.0445058,41.9869907 L73.0445058,39.7453458 L74.1208605,39.7453458 C74.6648198,39.7453458 74.8278488,40.1338318 74.9142384,40.7600748 L74.9201337,40.8038131 L75.2303198,40.8038131 L75.2303198,39.3831028 L71.426686,39.3831028" id="Fill-11" fill="#FFFFFF"></path>
                <path d="M81.0007326,43.6887477 C81.0007326,43.6887477 80.357686,42.7208972 80.2198256,42.512972 C80.9202384,42.2184673 81.3578547,41.5825794 81.3578547,40.828486 C81.3578547,39.8299065 80.4912384,39.3831028 79.6325581,39.3831028 L77.1732907,39.3831028 L77.1732907,39.6906168 L77.315686,39.7074393 C77.8873081,39.7749533 77.8873081,39.7749533 77.8861744,40.3693458 L77.8861744,44.2315514 C77.8873081,44.8243738 77.8873081,44.8243738 77.3161395,44.8909907 L77.173064,44.9078131 L77.1732907,45.2171215 L79.5030872,45.2171215 L79.5030872,44.9075888 L79.3606919,44.8909907 C78.8151453,44.827514 78.790657,44.8248224 78.790657,44.3147664 C78.790657,44.291215 78.7908837,42.7742804 78.7908837,42.6796262 L79.5169186,42.6796262 C79.5169186,42.6796262 79.5166919,42.6800748 79.5166919,42.6807477 C79.5166919,42.7287477 80.2241337,43.9682243 80.2241337,43.9682243 C80.6789826,44.7997009 80.907314,45.2171215 81.2737326,45.2171215 L82.1779884,45.2171215 L82.1779884,45.0612336 C81.9031744,44.871028 81.4830174,44.3867664 81.0007326,43.6887477 L81.0007326,43.6887477 Z M79.4262209,42.3155888 L78.7908837,42.3155888 L78.7908837,39.7453458 L79.3774709,39.7453458 C79.8561279,39.7453458 80.4263895,39.9456449 80.4263895,40.8995888 C80.4263895,41.8391776 80.0899012,42.3155888 79.4262209,42.3155888 L79.4262209,42.3155888 Z" id="Fill-12" fill="#FFFFFF"></path>
                <path d="M83.477686,40.6542056 C83.477686,41.5285234 84.0096279,41.8782056 84.4372674,42.1592523 L84.5039302,42.203215 C85.7714302,43.0322243 86.0117791,43.4523364 86.0117791,43.9381682 C86.0117791,44.493757 85.5662267,44.9293458 84.9973256,44.9293458 C84.26925,44.9293458 83.7899128,44.4715514 83.715314,43.7046729 L83.7110058,43.6589159 L83.3962849,43.6589159 L83.3962849,44.8896449 C83.3962849,44.9952897 83.4516105,45.0347664 83.4844884,45.0491215 C83.9622384,45.2308037 84.4182209,45.3151402 84.9211395,45.3151402 C85.9167733,45.3151402 86.9749884,44.7665047 86.9749884,43.749757 C86.9749884,43.058243 86.6883837,42.6244486 85.7959186,41.964785 L85.5004709,41.7476636 C84.8433663,41.2678879 84.4091512,40.9509533 84.4091512,40.4727477 C84.4091512,39.9718879 84.7309012,39.6726729 85.2694186,39.6726729 C86.0319593,39.6726729 86.218343,40.2912897 86.2618779,40.6600374 L86.267093,40.7048972 L86.578186,40.7048972 L86.578186,39.578243 C86.578186,39.5488598 86.578186,39.4712523 86.4838605,39.4438879 C86.0686919,39.2971963 85.4802907,39.285757 85.3100058,39.285757 C84.2996337,39.285757 83.477686,39.8996636 83.477686,40.6542056" id="Fill-13" fill="#FFFFFF"></path>
                <path d="M88.5937151,39.3831028 L88.5937151,39.6906168 L88.7367907,39.7074393 C89.3095465,39.7749533 89.3095465,39.7749533 89.3084128,40.3695701 L89.3084128,44.2315514 C89.3095465,44.8243738 89.3095465,44.8243738 88.7370174,44.8909907 L88.5934884,44.9078131 L88.5937151,45.2171215 L90.9253256,45.2171215 L90.9253256,44.9078131 L90.7829302,44.8909907 C90.2126686,44.8245981 90.2126686,44.8245981 90.2140291,44.238729 L90.2140291,40.3623925 C90.2126686,39.7745047 90.2126686,39.7745047 90.7833837,39.7074393 L90.9255523,39.6906168 L90.9253256,39.3831028 L88.5937151,39.3831028" id="Fill-14" fill="#FFFFFF"></path>
                <path d="M92.373314,39.3831028 L92.1309244,40.7354019 L92.4311337,40.7354019 L92.5059593,40.5864673 C92.7490291,40.0983925 92.9247558,39.7453458 93.5596395,39.7453458 L94.2552907,39.7453458 L94.2552907,44.3001869 C94.2552907,44.8243738 94.2332965,44.8270654 93.6836686,44.8909907 L93.5401395,44.9078131 L93.5403663,45.2171215 L95.8703895,45.2171215 L95.8703895,44.9078131 L95.7284477,44.8909907 C95.1849419,44.827514 95.1606802,44.8248224 95.1606802,44.3154393 C95.1606802,44.2918879 95.160907,39.844486 95.160907,39.7453458 L95.8536105,39.7453458 C96.4909884,39.7453458 96.6664884,40.1013084 96.9093314,40.5940935 L96.9793953,40.7356262 L97.2811919,40.7354019 L97.0410698,39.3831028 L92.373314,39.3831028" id="Fill-15" fill="#FFFFFF"></path>
                <path d="M101.540128,39.3831028 L101.540128,39.6964486 L101.591372,39.6964486 C101.843512,39.6964486 102.021279,39.7619439 102.092023,39.8810467 C102.116058,39.9216449 102.128076,39.9694206 102.128076,40.0234766 C102.128076,40.1179065 102.091343,40.2314019 102.018785,40.3594766 C102.018558,40.3601495 101.140831,41.9437009 100.926331,42.3301682 C100.847424,42.1682243 99.9651628,40.3621682 99.9651628,40.3621682 C99.8944186,40.2165981 99.8277558,40.0598131 99.8277558,39.9389159 C99.8277558,39.8954019 99.8363721,39.8565981 99.8567791,39.824972 C99.9107442,39.739514 100.054727,39.6964486 100.283965,39.6964486 L100.335209,39.6964486 L100.335209,39.3831028 L98.1187849,39.3831028 L98.1187849,39.6964486 L98.1698023,39.6964486 C98.524657,39.6964486 98.7450523,39.8823925 99.0126105,40.407028 L100.28714,42.9050467 L100.281698,44.2402991 C100.282831,44.8245981 100.282831,44.8245981 99.7103023,44.8909907 L99.5674535,44.9075888 L99.5676802,45.2171215 L101.901105,45.2171215 L101.901105,44.9078131 L101.759163,44.891215 C101.189581,44.8248224 101.189581,44.8248224 101.190715,44.2429907 L101.190715,43.2248972 C101.190715,43.0416449 101.201145,42.8106168 101.282093,42.6518131 L102.665233,40.1679252 C102.902634,39.7500561 103.128244,39.6964486 103.298076,39.6964486 L103.34932,39.6964486 L103.34932,39.3831028 L101.540128,39.3831028" id="Fill-16" fill="#FFFFFF"></path>
                <path d="M107.530029,43.2056075 C107.530029,41.8142804 108.744471,39.7307664 110.53439,39.7307664 C111.962198,39.7307664 112.273971,40.686729 112.273971,41.6424673 C112.273971,42.8112897 111.329808,45.2951776 109.281174,45.2951776 C107.906651,45.2951776 107.530029,44.2010467 107.530029,43.2056075 L107.530029,43.2056075 Z M111.287407,41.1335327 C111.287407,40.0277383 110.611483,39.9864673 110.43961,39.9864673 C109.281174,39.9864673 108.518634,42.0482243 108.518634,43.4263178 C108.518634,43.979215 108.61432,44.9746542 109.407017,44.9746542 C110.63189,44.9746542 111.287407,42.9813084 111.287407,41.1335327 L111.287407,41.1335327 Z" id="Fill-17" fill="#FFFFFF"></path>
                <path d="M117.268692,40.0820187 L117.010884,40.3063178 L115.60439,40.3063178 C115.07993,42.833271 114.221703,46.1995514 113.608814,47.8115888 L113.125169,47.8115888 L114.661134,40.3063178 L113.640785,40.3063178 L113.737151,39.859514 L114.74707,39.859514 C115.31393,37.5981308 117.205657,37.3650841 117.65393,37.3650841 C117.902669,37.3650841 118.417378,37.4054579 118.580407,37.5543925 L118.447535,38.2562243 L118.179977,38.3840748 C118.029419,38.0985421 117.687488,37.7690467 117.238535,37.7690467 C116.590047,37.7690467 116.110029,38.2017196 115.851541,39.3478879 L115.733634,39.859514 L117.310186,39.859514 L117.268692,40.0820187" id="Fill-18" fill="#FFFFFF"></path>
                <path d="M121.701767,37.6869533 L121.701767,38.0583925 L121.87364,38.0788037 C122.626657,38.1669533 122.626657,38.1669533 122.62507,38.939215 L122.62507,43.9648598 C122.626657,44.7362243 122.626657,44.7362243 121.87568,44.8250467 L121.701541,44.8456822 L121.701767,45.2171215 L124.689802,45.2171215 L124.689802,44.8456822 L124.515663,44.8248224 C123.797337,44.7398131 123.766727,44.7362243 123.766727,44.0552523 C123.766727,44.024972 123.766953,38.2268411 123.766953,38.127028 L124.37032,38.127028 C125.55007,38.127028 126.099471,38.6637757 126.099471,39.8157757 C126.099471,40.4263178 125.923744,40.92 125.591337,41.2438879 C125.263692,41.5628411 124.792064,41.7196262 124.189605,41.7102056 L124.13768,41.7093084 L124.13768,42.0179439 L124.185523,42.0208598 C125.16211,42.078729 126.046186,41.8097944 126.611233,41.2835888 C127.047488,40.8769346 127.27786,40.3334579 127.27786,39.7114766 C127.27786,38.3869907 126.33914,37.6869533 124.562599,37.6869533 L121.701767,37.6869533" id="Fill-19" fill="#FFFFFF"></path>
                <path d="M128.654651,39.3831028 L128.654651,39.6906168 L128.797273,39.7074393 C129.367988,39.7749533 129.367988,39.7749533 129.366855,40.3691215 L129.366855,44.2317757 C129.367988,44.8243738 129.367988,44.8243738 128.7975,44.8909907 L128.654424,44.9078131 L128.654651,45.2171215 L132.821756,45.2171215 L133.089541,43.6420935 L132.779581,43.6420935 L132.62789,44.0068037 C132.379605,44.6231776 132.28664,44.8539813 131.289645,44.8539813 C130.535494,44.8539813 130.271564,44.7963364 130.271564,44.1519252 L130.271564,42.3528224 L130.917558,42.3528224 C131.399163,42.3528224 131.610715,42.5679252 131.624547,43.0719252 L131.625907,43.121271 L131.944709,43.121271 L131.944709,41.2748411 L131.625907,41.2748411 L131.624547,41.3239626 C131.611849,41.8010467 131.413674,41.9869907 130.917558,41.9869907 L130.271564,41.9869907 L130.271564,39.7453458 L131.346331,39.7453458 C131.893012,39.7453458 132.055814,40.1338318 132.141297,40.7600748 L132.147419,40.8038131 L132.457605,40.8038131 L132.457605,39.3831028 L128.654651,39.3831028" id="Fill-20" fill="#FFFFFF"></path>
                <path d="M138.426872,39.3831028 L138.426872,39.6926355 L138.474035,39.6962243 C139.032279,39.7390654 139.263331,39.8532336 139.298023,40.1031028 L139.312988,40.1997757 L139.348134,40.5402617 L139.348134,43.7834019 C139.2105,43.6198879 135.671703,39.4014953 135.671703,39.4014953 L134.075424,39.3831028 L134.075424,39.6964486 L134.126442,39.6964486 C134.583331,39.6964486 134.830483,39.9620187 135.044529,40.2340935 L135.033645,44.0615327 L134.998953,44.3939439 L134.982855,44.4953271 C134.94975,44.7364486 134.744773,44.8620561 134.318267,44.9024299 L134.272012,44.9066916 L134.272012,45.2171215 L136.401593,45.2171215 L136.401593,44.9053458 L136.353977,44.9022056 C135.799814,44.8640748 135.569895,44.7499065 135.533163,44.4953271 L135.516384,44.3831776 L135.484186,44.0615327 L135.484186,40.5788411 C135.651523,40.7748785 137.810808,43.3047477 137.810808,43.3047477 L139.441099,45.2171215 L139.796634,45.2171215 L139.796634,40.5402617 L139.828378,40.2219813 L139.846064,40.1022056 C139.879849,39.8678131 140.085959,39.7424299 140.514506,39.6962243 L140.560081,39.6910654 L140.560081,39.3831028 L138.426872,39.3831028" id="Fill-21" fill="#FFFFFF"></path>
                <path d="M145.985616,39.3831028 L145.985616,39.6926355 L146.032779,39.6962243 C146.589209,39.7390654 146.820942,39.8532336 146.858581,40.1035514 L146.874453,40.2192897 L146.904157,40.5402617 L146.904157,43.7825047 C146.764936,43.6165234 143.22682,39.4014953 143.22682,39.4014953 L141.630541,39.3831028 L141.630541,39.6964486 L141.681785,39.6964486 C142.143209,39.6964486 142.390134,39.9620187 142.603047,40.2340935 L142.59239,44.0615327 L142.560419,44.3860935 L142.544093,44.496 C142.508267,44.7362243 142.302157,44.8618318 141.876105,44.9024299 L141.829849,44.9066916 L141.829849,45.2171215 L143.960337,45.2171215 L143.960337,44.9053458 L143.912721,44.9022056 C143.364453,44.8642991 143.126145,44.7463178 143.09032,44.4953271 C143.09032,44.4962243 143.073087,44.3780187 143.073087,44.3780187 L143.042023,44.0615327 L143.042023,40.5788411 C143.208453,40.7739813 145.24507,43.1594019 145.24507,43.1594019 L146.999843,45.2173458 L147.353564,45.2171215 L147.353564,40.5402617 L147.387802,40.2116636 L147.404581,40.1028785 C147.437006,39.8680374 147.64289,39.7424299 148.071436,39.6962243 L148.117012,39.6910654 L148.117012,39.3831028 L145.985616,39.3831028" id="Fill-22" fill="#FFFFFF"></path>
                <path d="M149.579965,40.6542056 C149.579965,41.5258318 150.109413,41.875514 150.534785,42.1565607 L150.605076,42.203215 C151.873483,43.0308785 152.113831,43.4514393 152.113831,43.9381682 C152.113831,44.493757 151.668052,44.9293458 151.098698,44.9293458 C150.371756,44.9293458 149.891965,44.4713271 149.814872,43.7044486 L149.81011,43.6589159 L149.498337,43.6589159 L149.498337,44.8896449 C149.498337,44.9638879 149.528948,45.0215327 149.582459,45.048 C150.056128,45.2285607 150.525488,45.3151402 151.022512,45.3151402 C152.018372,45.3151402 153.077041,44.7665047 153.077041,43.749757 C153.077041,43.0566729 152.790436,42.6228785 151.897064,41.964785 L151.595948,41.742729 C150.942698,41.264972 150.511203,40.9491589 150.511203,40.4727477 C150.511203,39.7305421 151.167855,39.6726729 151.36875,39.6726729 C152.136733,39.6726729 152.321302,40.2912897 152.363023,40.6598131 L152.368012,40.7048972 L152.681145,40.7048972 L152.681145,39.578243 C152.681145,39.5080374 152.649174,39.462729 152.585233,39.4438879 C152.170971,39.2971963 151.58393,39.285757 151.413872,39.285757 C150.40282,39.285757 149.579965,39.8996636 149.579965,40.6542056" id="Fill-23" fill="#FFFFFF"></path>
                <path d="M157.672692,39.3831028 L157.672692,39.6964486 L157.723936,39.6964486 C157.974942,39.6964486 158.152029,39.7617196 158.22232,39.8803738 C158.246355,39.920972 158.258599,39.9687477 158.258599,40.023028 C158.258599,40.1174579 158.221866,40.2311776 158.149308,40.3594766 C158.149308,40.3599252 157.269994,41.9439252 157.055267,42.3303925 C156.97636,42.1682243 156.095006,40.3623925 156.095006,40.3623925 C156.024942,40.2157009 155.959413,40.0575701 155.959413,39.9371215 C155.959413,39.8933832 155.968029,39.8548037 155.988209,39.8231776 C156.042401,39.7390654 156.185023,39.6964486 156.412901,39.6964486 L156.464145,39.6964486 L156.464145,39.3831028 L154.252936,39.3831028 L154.252936,39.6964486 L154.30418,39.6964486 C154.655407,39.6964486 154.874895,39.8823925 155.142453,40.407028 L156.416983,42.9050467 L156.411541,44.2429907 C156.412674,44.8248224 156.412674,44.8248224 155.843093,44.891215 L155.700924,44.9078131 L155.701151,45.2171215 L158.030041,45.2171215 L158.030041,44.9078131 L157.887419,44.8909907 C157.31693,44.8245981 157.31693,44.8245981 157.318064,44.2362617 L157.318064,43.2248972 C157.318064,42.9660561 157.348901,42.7785421 157.412843,42.6515888 L158.794395,40.1679252 C159.03157,39.7500561 159.25718,39.6964486 159.427012,39.6964486 L159.478256,39.6964486 L159.478256,39.3831028 L157.672692,39.3831028" id="Fill-24" fill="#FFFFFF"></path>
                <path d="M160.80539,39.3831028 L160.80539,39.6906168 L160.948012,39.7074393 C161.519634,39.7749533 161.519634,39.7749533 161.5185,40.3693458 L161.5185,44.2315514 C161.519634,44.8243738 161.519634,44.8243738 160.948465,44.8909907 L160.80539,44.9078131 L160.80539,45.2171215 L164.965465,45.2171215 L165.230529,43.6420935 L164.927599,43.6420935 L164.781576,43.9955888 C164.531477,44.6202617 164.437831,44.8539813 163.431314,44.8539813 C162.649727,44.8539813 162.422302,44.7779439 162.422302,44.275514 L162.422302,40.3603738 C162.420942,39.7745047 162.420942,39.7745047 162.993244,39.7074393 L163.13564,39.6906168 L163.135413,39.3831028 L160.80539,39.3831028" id="Fill-25" fill="#FFFFFF"></path>
                <path d="M169.233017,39.3831028 L169.233017,39.6964486 L169.284262,39.6964486 C169.56157,39.6964486 169.744326,39.7583551 169.827767,39.8801495 C169.864273,39.9330841 169.882413,39.9988037 169.882413,40.0766355 C169.882413,40.1674766 169.857471,40.2749159 169.808041,40.3978318 L169.353872,41.5125981 C169.353872,41.5125981 168.407442,43.8109907 168.31357,44.0391028 C168.231715,43.7995514 167.122256,40.547215 167.122256,40.547215 C167.058541,40.363514 167.02657,40.2100935 167.02657,40.0878505 C167.02657,39.9887103 167.04743,39.9104299 167.088698,39.852785 C167.166924,39.7444486 167.32043,39.6964486 167.586401,39.6964486 L167.637419,39.6964486 L167.637419,39.3831028 L165.284494,39.3831028 L165.284494,39.6964486 L165.335738,39.6964486 C165.670186,39.6964486 165.925953,39.8761121 166.245663,40.7950654 C166.24589,40.7957383 167.833552,45.2171215 167.833552,45.2171215 L168.325587,45.2171215 L170.434308,40.1582804 C170.607087,39.7442243 170.880767,39.6964486 171.071686,39.6964486 L171.122703,39.6964486 L171.122703,39.3831028 L169.233017,39.3831028" id="Fill-26" fill="#FFFFFF"></path>
                <path d="M176.544384,44.9022056 C176.228529,44.9022056 176.106541,44.6819439 175.920837,44.214729 L174.668302,40.5979065 L174.222523,39.2855327 L173.686047,39.285757 L173.087215,40.8811963 C172.51582,42.4118131 171.924698,43.9944673 171.662355,44.5229159 C171.547622,44.7568598 171.33675,44.9022056 171.111593,44.9022056 L171.060349,44.9022056 L171.060349,45.2171215 L172.670913,45.2171215 L172.670913,44.9022056 L172.619895,44.9022056 C172.468657,44.9022056 172.353017,44.8530841 172.285221,44.76 C172.2435,44.703028 172.222413,44.6323738 172.222413,44.5538692 C172.222413,44.4993645 172.232616,44.4405981 172.253023,44.3798131 C172.253023,44.3798131 172.590872,43.4166729 172.62511,43.3184299 L174.66082,43.3184299 C174.682814,43.3832523 175.005244,44.3405607 175.005244,44.3405607 C175.046058,44.4493458 175.066465,44.5404112 175.066465,44.6151028 C175.066465,44.6779065 175.05218,44.7288224 175.02361,44.7694206 C174.961936,44.8573458 174.824983,44.9022056 174.616378,44.9022056 L174.565134,44.9022056 L174.565134,45.2171215 L176.595628,45.2171215 L176.595628,44.9022056 L176.544384,44.9022056 L176.544384,44.9022056 Z M172.783605,42.905271 C172.829407,42.7814579 173.62732,40.6257196 173.702145,40.4238505 C173.769942,40.6286355 174.483733,42.7845981 174.523413,42.905271 L172.783605,42.905271 L172.783605,42.905271 Z" id="Fill-27" fill="#FFFFFF"></path>
                <path d="M194.119779,44.9022056 C193.803924,44.9022056 193.681936,44.6819439 193.496006,44.214729 L192.243698,40.5979065 L191.797919,39.2855327 L191.261442,39.285757 L190.66261,40.8811963 C190.091215,42.4118131 189.500093,43.9944673 189.23775,44.5229159 C189.123017,44.7568598 188.911919,44.9022056 188.686762,44.9022056 L188.635744,44.9022056 L188.635744,45.2171215 L190.246308,45.2171215 L190.246308,44.9022056 L190.195291,44.9022056 C190.044052,44.9022056 189.928413,44.8530841 189.860616,44.76 C189.818669,44.703028 189.797808,44.6323738 189.797808,44.5538692 C189.797808,44.4993645 189.808012,44.4405981 189.828192,44.3798131 C189.828192,44.3798131 190.166267,43.4166729 190.200506,43.3184299 L192.236215,43.3184299 C192.257983,43.3832523 192.58064,44.3405607 192.58064,44.3405607 C192.621453,44.4493458 192.64186,44.5404112 192.64186,44.6151028 C192.64186,44.6779065 192.627576,44.7288224 192.599006,44.7694206 C192.537331,44.8573458 192.400151,44.9022056 192.191547,44.9022056 L192.140529,44.9022056 L192.140529,45.2171215 L194.171023,45.2171215 L194.171023,44.9022056 L194.119779,44.9022056 L194.119779,44.9022056 Z M190.358773,42.905271 C190.404576,42.7814579 191.202715,40.6257196 191.277541,40.4238505 C191.345337,40.6286355 192.058901,42.7845981 192.098808,42.905271 L190.358773,42.905271 L190.358773,42.905271 Z" id="Fill-28" fill="#FFFFFF"></path>
                <path d="M181.747483,39.3831028 L181.747483,39.6926355 L181.794645,39.6962243 C182.350849,39.7392897 182.581448,39.8532336 182.61682,40.1031028 L182.630198,40.1919252 L182.665116,40.5402617 L182.665116,43.7834019 C182.528163,43.6205607 181.012378,41.814729 181.012378,41.814729 L178.988686,39.4014953 L177.390593,39.3831028 L177.390593,39.6964486 L177.441837,39.6964486 C177.905756,39.6964486 178.149733,39.9617944 178.359244,40.2336449 L178.349041,44.0615327 L178.315936,44.3986542 L178.301651,44.4955514 C178.268547,44.7362243 178.063116,44.8618318 177.63525,44.9024299 L177.588994,44.9066916 L177.588994,45.2171215 L179.721297,45.2171215 L179.721297,44.9053458 L179.67368,44.9022056 C179.123145,44.8642991 178.884837,44.7463178 178.851052,44.4957757 C178.851052,44.4953271 178.835634,44.3975327 178.835634,44.3975327 L178.801169,44.0615327 L178.801169,40.5788411 C178.966919,40.7730841 182.760802,45.2173458 182.760802,45.2173458 L183.114523,45.2171215 L183.114523,40.5402617 L183.146948,40.2269159 L183.165767,40.1022056 C183.199552,39.8680374 183.405209,39.7424299 183.832395,39.6962243 L183.877971,39.6910654 L183.877971,39.3831028 L181.747483,39.3831028" id="Fill-29" fill="#FFFFFF"></path>
                <path d="M185.133453,39.3831028 L185.133453,39.6906168 L185.275622,39.7074393 C185.847017,39.7745047 185.847017,39.7745047 185.845657,40.3623925 L185.845657,44.2385047 C185.847017,44.8245981 185.847017,44.8245981 185.276076,44.8909907 L185.133227,44.9078131 L185.133453,45.2171215 L187.464384,45.2171215 L187.464384,44.9078131 L187.321535,44.8909907 C186.75014,44.8243738 186.75014,44.8243738 186.751273,44.2340187 L186.751273,40.3668785 C186.75014,39.774729 186.75014,39.774729 187.321762,39.7074393 L187.46461,39.6906168 L187.464384,39.3831028 L185.133453,39.3831028" id="Fill-30" fill="#FFFFFF"></path>
                <path d="M0.116093023,3.27028037 L0.116093023,22.6503925 C0.116093023,38.4558505 17.479936,46.2226542 19.7079244,46.2924112 C21.9368198,46.2226542 39.3099593,38.4558505 39.3099593,22.6503925 L39.3099593,3.27028037 L0.116093023,3.27028037" id="Fill-31" fill="#003D6E"></path>
                <path d="M0.0954593023,3.09285981 C0.0954593023,3.9602243 0.0963662791,14.0657944 0.0963662791,14.9365234 L39.3081453,14.9365234 C39.3081453,14.9365234 39.3099593,3.95506542 39.3099593,3.08770093 C38.3580872,3.08770093 1.0473314,3.09285981 0.0954593023,3.09285981 L0.0954593023,3.09285981 Z M9.75113372,11.2210093 C9.74410465,11.229757 9.75022674,12.1128224 9.75022674,12.1128224 L1.53347093,12.1094579 C1.53347093,12.1094579 1.53959302,11.2261682 1.53256395,11.2183178 C1.53256395,10.9047477 0.993139535,10.8511402 0.993139535,10.3937944 C0.993139535,9.83484112 1.51578488,9.8164486 1.51578488,9.61323364 L1.51578488,7.99940187 C1.51578488,7.74100935 0.996767442,7.77779439 0.996767442,7.16971963 C0.996767442,6.57914019 1.521,6.63431776 1.521,6.37592523 C1.521,6.11820561 1.53075,5.81854206 1.52281395,5.70728972 L2.13298256,5.70728972 L2.13298256,5.30175701 L2.62456395,5.30175701 C3.16126744,5.21315888 3.6680407,4.75581308 4.07096512,4.71117757 C4.4732093,4.66743925 4.92034884,4.75581308 5.36771512,5.02138318 L5.88945349,5.02138318 C6.33659302,4.75581308 6.78305233,4.66743925 7.18529651,4.71117757 C7.58822093,4.75581308 8.09499419,5.21315888 8.63169767,5.30175701 L9.12418605,5.30175701 L9.12418605,5.7108785 L9.76088372,5.7108785 C9.76088372,5.7108785 9.76360465,6.12179439 9.76360465,6.37928972 C9.76360465,6.63790654 10.287157,6.58272897 10.287157,7.17330841 C10.287157,7.78115888 9.76904651,7.74437383 9.76904651,8.00299065 L9.76904651,9.61682243 C9.76904651,9.82003738 10.2905581,9.83842991 10.2905581,10.3973832 C10.2905581,10.854729 9.75113372,10.9081121 9.75113372,11.2210093 L9.75113372,11.2210093 Z M28.3507326,9.5046729 C28.6872209,10.5725607 28.4455116,11.5170841 27.9332965,12.2426916 C27.1061337,13.4139813 25.6155174,13.6331215 25.5606453,13.6391776 C23.6190349,13.9756262 22.2567558,13.2632523 21.6758372,12.9566355 C21.5853663,12.907514 21.507593,12.8655701 21.457936,12.8462804 C21.2622558,12.7648598 20.8094477,12.5300187 20.2870291,12.2557009 C19.5607674,11.8788785 18.6528837,11.4040374 18.3728547,11.3208224 C17.879686,11.1604486 17.4783488,11.105271 17.1577326,11.105271 C16.622843,11.105271 16.3144709,11.2613832 16.1815988,11.349757 C16.0709477,11.9403364 15.6671163,12.1751776 15.2916279,12.4396262 L15.21,12.4983925 C14.6236395,12.9207477 13.7327616,13.5559626 12.7679651,13.5559626 C12.1870465,13.5559626 11.7671163,13.3588037 11.6272151,12.8200374 L11.271,12.7464673 C10.6742093,12.1558879 11.1594419,11.4724486 11.3172558,11.2954766 C11.4306279,11.1718879 11.554657,11.0334953 11.554657,10.9336822 C11.554657,10.730243 11.505907,10.6943551 11.388907,10.610243 C11.2419767,10.5104299 11.0231686,10.3588037 11.0231686,9.93398131 C11.0231686,9.27588785 12.4162849,6.0237757 13.1586453,5.66624299 L13.3579535,5.98160748 C13.4783547,5.93069159 13.5404826,5.82661682 13.6450116,5.65300935 C13.6450116,5.65300935 13.9186919,5.18175701 14.2579012,5.01442991 C14.8247616,4.73315888 15.2657791,5.00209346 15.5297093,5.1597757 C15.5891163,5.19835514 15.5943314,5.23334579 15.6244884,5.21495327 C15.6573663,5.19140187 15.6954593,5.13353271 15.7451163,5.06960748 C15.9176686,4.84261682 16.1559767,4.5368972 16.537814,4.50168224 C17.2223547,4.4404486 17.4792558,4.7531215 17.645686,4.96261682 C17.7706221,5.1115514 17.7962442,5.13084112 17.8812733,5.12119626 C18.0443023,5.10728972 18.1613023,5.04672897 18.2948547,4.97585047 C18.5236395,4.85652336 18.809564,4.70848598 19.2798314,4.86975701 C20.0301279,5.12725234 20.13375,5.55925234 20.202907,5.84657944 C20.2444012,6.02108411 20.2648081,6.08231776 20.3455291,6.12358879 C20.5509593,6.23304673 20.7244186,6.22429907 20.9264477,6.21465421 C21.226657,6.19895327 21.6014651,6.17517757 21.9991744,6.61771963 C22.3027849,6.95327103 22.2436047,7.34063551 22.1982558,7.64994393 C22.1610698,7.90138318 22.1461047,8.06242991 22.2408837,8.16224299 C22.3213779,8.24635514 22.4002849,8.26564486 22.5181919,8.29816822 C22.7297442,8.35581308 23.0168023,8.43386916 23.2843605,8.89480374 C23.4827616,9.24 23.3727907,9.59484112 23.2843605,9.87880374 C23.2347035,10.0407477 23.1204244,10.3561121 23.2904826,10.4754393 C23.5410349,10.6557757 23.5020349,10.8722243 23.701343,11.0361869 C24.0795523,11.3524486 24.5003895,11.4829907 24.7969709,11.5294206 C25.3905872,11.6240748 25.9059767,11.5363738 26.1760291,11.2954766 C26.3293081,11.1552897 26.3683081,10.952972 26.4116163,10.7277757 C26.4569651,10.4911402 26.4639942,10.0461308 26.0857849,9.84358879 C25.7855756,9.67805607 25.077,9.86915888 24.8359709,10.224 L24.5783895,10.6050841 L24.3985814,10.1818318 C24.0795523,9.42751402 24.0698023,8.79229907 24.3666105,8.29457944 C24.6890407,7.7531215 25.2531802,7.5848972 25.6189186,7.51401869 C25.6286686,6.49592523 25.9254767,5.82661682 26.5063953,5.45248598 C27.5011221,4.81457944 28.5278198,5.21764486 28.5278198,5.21495327 C28.5278198,5.21495327 27.395686,6.48179439 28.3507326,9.5046729 L28.3507326,9.5046729 Z M37.7420233,11.2210093 C37.7347674,11.229757 37.7411163,12.1128224 37.7411163,12.1128224 L29.5243605,12.1094579 C29.5243605,12.1094579 29.5304826,11.2261682 29.5234535,11.2183178 C29.5234535,10.9047477 28.9840291,10.8511402 28.9840291,10.3937944 C28.9840291,9.83484112 29.5055407,9.8164486 29.5055407,9.61323364 L29.5055407,7.99940187 C29.5055407,7.74100935 28.9874302,7.77779439 28.9874302,7.16971963 C28.9874302,6.57914019 29.5109826,6.63431776 29.5109826,6.37592523 C29.5109826,6.11820561 29.5207326,5.81854206 29.5137035,5.70728972 L30.1238721,5.70728972 L30.1238721,5.30175701 L30.6154535,5.30175701 C31.152157,5.21315888 31.6589302,4.75581308 32.0618547,4.71117757 C32.4638721,4.66743925 32.9103314,4.75581308 33.3586047,5.02138318 L33.8801163,5.02138318 C34.3274826,4.75581308 34.7739419,4.66743925 35.1759593,4.71117757 C35.5791105,4.75581308 36.085657,5.21315888 36.6214535,5.30175701 L37.1139419,5.30175701 L37.1139419,5.7108785 L37.7517733,5.7108785 C37.7517733,5.7108785 37.7542674,6.12179439 37.7542674,6.37928972 C37.7542674,6.63790654 38.2778198,6.58272897 38.2778198,7.17330841 C38.2778198,7.78115888 37.7588023,7.74437383 37.7588023,8.00299065 L37.7588023,9.61682243 C37.7588023,9.82003738 38.2814477,9.83842991 38.2814477,10.3973832 C38.2814477,10.854729 37.7420233,10.9081121 37.7420233,11.2210093 L37.7420233,11.2210093 Z" id="Fill-32" fill="#931430"></path>
                <path d="M8.69541279,40.1271028 C13.4447965,44.4316262 18.6032267,46.6782056 19.7076977,46.7140935 C20.8121686,46.6782056 25.9724128,44.4316262 30.7217965,40.1255327 L19.7104186,28.8623551 L8.69541279,40.1271028 L8.69541279,40.1271028 Z M23.7315,23.2759626 C23.7315,21.1837009 21.9114244,19.4788037 19.6714186,19.4788037 C17.4323198,19.4788037 15.6147384,21.1837009 15.6147384,23.2759626 C15.6147384,25.3745047 17.4323198,27.0785047 19.6714186,27.0785047 C21.9114244,27.0785047 23.7315,25.3745047 23.7315,23.2759626 L23.7315,23.2759626 Z M14.4685465,31.2533832 C14.4685465,29.2075514 12.685657,27.5463925 10.4925872,27.5463925 C8.29339535,27.5463925 6.51821512,29.2075514 6.51821512,31.2533832 C6.51821512,33.3106542 8.29339535,34.965757 10.4925872,34.965757 C12.685657,34.965757 14.4685465,33.3106542 14.4685465,31.2533832 L14.4685465,31.2533832 Z M28.7953779,27.5463925 C26.6038953,27.5463925 24.8210058,29.2075514 24.8210058,31.2533832 C24.8210058,33.3106542 26.6038953,34.965757 28.7953779,34.965757 C30.9963837,34.965757 32.7704302,33.3106542 32.7704302,31.2533832 C32.7704302,29.2075514 30.9963837,27.5463925 28.7953779,27.5463925 L28.7953779,27.5463925 Z M0.0977267442,15.9180561 L0.0986337209,22.5593271 C0.0986337209,26.147215 1.01785465,29.3477383 2.45269186,32.1602243 L19.7104186,15.9225421 L36.9642907,32.157757 C38.3982209,29.3443738 39.3176686,26.1418318 39.3176686,22.553271 L39.3185756,15.9180561 L0.0977267442,15.9180561 L0.0977267442,15.9180561 Z" id="Fill-33" fill="#FFFFFF"></path>
                <path d="M15.25875,11.1176075 C15.1453779,11.1043738 14.9948198,11.0072523 14.9787209,10.8625794 C14.9524186,10.6690093 15.18075,10.5499065 15.318157,10.4754393 C15.8716395,10.2623551 16.2278547,10.0214579 16.3047209,9.91626168 C16.0834186,9.70160748 15.9185756,9.47820561 15.7875174,9.30123364 C15.7095174,9.20142056 15.6467093,9.11461682 15.5891163,9.04979439 C15.3632791,8.81069159 15.1152209,8.70818692 14.7628605,8.70818692 C14.5572035,8.70818692 14.2808023,9.08478505 14.000093,9.17854206 C13.6450116,9.29517757 13.5670116,8.94033645 13.6547616,8.75013084 C13.7520349,8.5433271 13.9576919,8.51371963 13.9576919,8.256 C13.9576919,7.78564486 13.7139419,7.3204486 13.4749535,6.87611215 C13.3878837,6.62736449 13.1327965,6.58519626 13.1327965,6.58519626 C12.6527791,6.81398131 11.5217791,9.32052336 11.5217791,9.93398131 C11.5217791,10.1046729 11.5571512,10.130243 11.6723372,10.2080748 C11.8247093,10.3141682 12.0532674,10.4727477 12.0532674,10.9336822 C12.0532674,11.2237009 11.8618953,11.4365607 11.6882093,11.6240748 C11.5997791,11.7238879 11.4793779,11.8562243 11.4793779,11.9237383 C11.4793779,12.1785421 11.4696279,12.3626916 12.1187965,12.3626916 C12.490657,12.3626916 12.8130872,12.2794766 13.0187442,12.1751776 C13.3738256,11.991028 13.7919419,11.6563738 13.9098488,11.3786916 C14.1012209,11.1465421 14.4306802,11.3461682 14.3783023,11.5722617 C14.1957733,12.0051589 13.5794826,12.2698318 13.2083023,12.5396636 C12.761843,12.8655701 12.1480465,12.7754019 12.1639186,12.7630654 C12.0557616,12.8698318 12.3675349,13.1239626 12.7493721,13.1239626 C12.792,13.1239626 12.8353081,13.1205981 12.8786163,13.1143178 C13.6742616,12.9943178 14.3828372,12.4853832 14.9159128,12.0980187 L15.0009419,12.0401495 C15.2462791,11.8658692 15.4873081,11.7106542 15.6308372,11.4829907 C15.6768663,11.411215 15.6607674,11.2201121 15.6113372,11.2077757 C15.5235872,11.1815327 15.4120291,11.1333084 15.25875,11.1176075" id="Fill-34" fill="#FFFFFF"></path>
                <path d="M13.6316337,10.5761495 C13.6316337,10.5909533 13.5076047,10.8975701 13.3082965,10.9626168 C13.2640814,10.9738318 13.2126105,10.985271 13.1611395,10.985271 C13.0708953,10.985271 12.9797442,10.9520748 12.9239651,10.8302804 C12.8654651,10.771514 12.8947151,10.5656075 12.9078663,10.4754393 C12.9441453,10.2695327 13.0842733,10.0880748 13.2083023,9.98826168 C13.2080756,9.98826168 13.7300407,9.61413084 13.8470407,9.66571963 C13.885814,9.68164486 13.7069128,10.0461308 13.7139419,10.0916636 C13.7787907,10.4209346 13.6316337,10.5761495 13.6316337,10.5761495" id="Fill-35" fill="#003D6E"></path>
                <path d="M14.008936,6.79917757 C14.7458547,6.14803738 16.8407442,6.08680374 17.1071686,6.09981308 C19.7723198,6.24964486 20.8386977,7.6086729 21.1894709,8.05547664 L21.24525,8.12635514 C21.262936,8.14923364 21.2869709,8.1851215 21.361343,8.29457944 C21.5810581,8.62228037 22.1256977,9.40037383 22.7120581,10.0986168 C22.7288372,9.98041121 22.7748663,9.84538318 22.8086512,9.73592523 C22.8784884,9.51162617 22.9424302,9.29876636 22.8494651,9.13928972 C22.686436,8.8562243 22.559686,8.82213084 22.3862267,8.77390654 C22.2381628,8.73442991 22.0549535,8.68441121 21.8794535,8.50048598 C21.6128023,8.22190654 21.6642733,7.86616822 21.7059942,7.58063551 C21.7483953,7.28702804 21.7669884,7.10130841 21.6289012,6.94721495 C21.3887791,6.68164486 21.224843,6.69039252 20.9520698,6.70542056 C20.7237384,6.71842991 20.4394012,6.73345794 20.1099419,6.55805607 C19.8246977,6.40642991 19.7652907,6.15947664 19.7174477,5.96052336 C19.6580407,5.71603738 19.6077035,5.50317757 19.1161221,5.33495327 C18.8503779,5.24388785 18.730657,5.30691589 18.5306686,5.41211215 C18.3792035,5.49173832 18.1887384,5.5917757 17.9229942,5.61353271 C17.5624709,5.64336449 17.3871977,5.42781308 17.2595407,5.27102804 C17.1151047,5.09585047 17.0010523,4.95566355 16.583843,4.99424299 C16.418093,5.00904673 16.2702558,5.20014953 16.1410116,5.36837383 C15.9877326,5.56530841 15.7972674,5.81158879 15.5147442,5.70998131 C15.432436,5.68014953 15.3526221,5.63282243 15.2685,5.58123364 C14.9948198,5.41390654 14.7787326,5.30871028 14.4810174,5.45495327 C14.2737733,5.55835514 14.1826221,5.71603738 14.0753721,5.89839252 C14.001907,6.02534579 13.922093,6.16306542 13.7989709,6.27611215 L13.923907,6.64059813 C13.951343,6.69039252 13.9815,6.74736449 14.008936,6.79917757" id="Fill-36" fill="#FFFFFF"></path>
                <path id="Fill-37" fill="#FFFFFF" d="M16.3287558,9.94003738 L16.3190058,9.89181308 C16.3162849,9.89786916 16.3119767,9.90751402 16.3047209,9.91626168 C16.3092558,9.92074766 16.313564,9.92590654 16.3190058,9.93039252 L16.3287558,9.94003738"></path>
                <path id="Fill-38" fill="#FFFFFF" d="M25.5323023,13.1511028 L25.5030523,13.1502056 L25.485593,13.1524486 C25.4853663,13.1524486 25.4826453,13.1528972 25.4826453,13.1528972 L25.5323023,13.1511028"></path>
                <path d="M27.8616453,9.60964486 C27.2027267,7.42474766 27.601343,6.20074766 27.7836453,5.53749533 C27.4410349,5.50856075 26.9954826,5.70033645 26.6986744,5.91947664 C26.286,6.22609346 26.0857849,6.82631776 26.102564,7.70063551 L26.1061919,7.92762617 L25.8794477,7.95117757 C25.6960116,7.97136449 25.077,8.07207477 24.7944767,8.54691589 C24.6171628,8.84209346 24.5817907,9.28553271 24.7280407,9.75431776 C25.026436,9.44500935 25.5613256,9.29069159 26.043157,9.3364486 C26.8891395,9.41428037 26.9342616,10.2107664 26.8812035,10.7109533 C26.8412965,11.0913645 26.7775814,11.4199626 26.5100233,11.6608598 C26.1229709,12.0078505 25.4692674,12.1374953 24.7182907,12.0165981 C24.2824884,11.9472897 23.8067791,11.7835514 23.3727907,11.4199626 C23.1709884,11.2517383 22.7766802,10.8504673 22.580093,10.636486 C21.8626744,9.85413084 21.198314,8.96231776 20.9371047,8.57226168 C20.8944767,8.50923364 20.8538895,8.4488972 20.8468605,8.43925234 L20.7874535,8.36388785 C20.4394012,7.9197757 19.5129244,6.73861682 17.0797326,6.60291589 C16.2187849,6.55805607 14.2746802,6.88396262 14.2241163,7.25383178 C14.3597093,7.56650467 14.4678663,7.90385047 14.4678663,8.256 C14.4678663,8.256 15.4544302,8.24299065 15.6439884,8.42781308 C15.8380814,8.22885981 16.0745756,8.10706542 16.38975,8.00635514 C16.6210291,7.93099065 16.9160233,7.98011215 17.1815407,8.1351028 C17.4146337,8.27170093 17.5837849,8.46370093 17.6935291,8.69943925 C17.9177791,8.59940187 18.2329535,8.50048598 18.5581047,8.60994393 C18.8245291,8.70123364 19.02225,8.90624299 19.1682733,9.2171215 C19.3916163,9.10071028 19.5818547,9.06818692 19.7705058,9.11371963 C20.134657,9.19962617 20.308343,9.5517757 20.4348663,9.80949533 C20.4711453,9.88396262 20.5058372,9.95327103 20.5366744,10.001271 C20.5482384,10.0196636 20.5713663,10.0268411 20.6987965,10.0311028 C20.9309826,10.0398505 21.3189419,10.0654206 21.5003372,10.7531215 C21.5819651,11.0597383 21.0459419,11.0509907 21.0017267,10.8495701 C20.9334767,10.5445234 20.8758837,10.5411589 20.6792965,10.5339813 C20.5146802,10.527028 20.2657151,10.5182804 20.1072209,10.2704299 C20.0602849,10.1984299 20.0203779,10.1161121 19.97775,10.0293084 C19.8911337,9.85323364 19.7829767,9.63431776 19.6528256,9.60269159 C19.5535116,9.57914019 19.3941105,9.64485981 19.2020581,9.78751402 L18.907064,10.0084486 L18.8043488,9.65697196 C18.7129709,9.33981308 18.5748837,9.14893458 18.3950756,9.08657944 C18.1390814,8.9991028 17.8069012,9.17517757 17.7014651,9.25054206 L17.3765407,9.48269159 L17.3021686,9.09375701 C17.2604477,8.87641121 17.1223605,8.68441121 16.9221453,8.568 C16.7670523,8.47693458 16.6210291,8.46100935 16.546657,8.48568224 C16.3092558,8.56104673 16.1498547,8.64672897 16.0124477,8.78691589 C16.0691337,8.8571215 16.1355698,8.92194393 16.1949767,9.00157009 C16.3278488,9.17854206 16.476593,9.37928972 16.6731802,9.56859813 C16.7981163,9.68680374 16.8493605,9.83663551 16.8185233,9.99095327 C16.7573023,10.3009346 16.585657,10.5490093 15.8070174,10.8486729 L15.9807035,10.8968972 C16.3251279,10.6874019 17.1028605,10.3928972 18.5236395,10.8495701 C18.8220349,10.9397383 19.5385465,11.3093832 20.5189884,11.8203364 C21.0105698,12.0769346 21.4747151,12.318729 21.6508953,12.3916262 C21.7191453,12.4205607 21.8032674,12.4642991 21.9096105,12.5203738 C22.491436,12.8251963 23.703157,13.4604112 25.4747093,13.1537944 L25.485593,13.1524486 C25.5277674,13.1463925 26.8342674,12.9420561 27.5267442,11.9578318 C27.9555174,11.349757 28.1434884,10.5411589 27.8616453,9.60964486" id="Fill-39" fill="#FFFFFF"></path>
                <path d="M4.18161628,10.3386168 C4.4500814,10.2204112 5.02397093,9.9348785 5.36771512,9.9348785 L5.36771512,5.41906542 C4.92488372,5.15708411 4.48250581,5.06803738 4.08366279,5.11020561 C4.02017442,5.12164486 3.95713953,5.13398131 3.89931977,5.15102804 C3.52836628,5.27394393 3.08780233,5.62317757 2.62456395,5.70033645 L2.62456395,10.4314766 C2.62456395,10.4314766 3.91428488,10.4570467 4.18161628,10.3386168 L4.18161628,10.3386168 Z M8.61673256,10.4314766 L8.61673256,5.70033645 C8.07980233,5.61106542 7.57393605,5.15461682 7.17101163,5.11065421 C6.89574419,5.07970093 6.59893605,5.11738318 6.29555233,5.22571963 C6.15565116,5.29076636 6.02776744,5.36186916 5.89444186,5.40897196 C5.88763953,5.41300935 5.88106395,5.41525234 5.87426163,5.41906542 L5.87426163,9.9348785 C6.21709884,9.9348785 6.79189535,10.2204112 7.06036047,10.3386168 C7.32769186,10.4570467 8.61673256,10.4314766 8.61673256,10.4314766 L8.61673256,10.4314766 Z M9.76904651,9.61682243 L9.76904651,8.00299065 C9.76904651,7.74437383 10.287157,7.78115888 10.287157,7.17330841 C10.287157,6.58272897 9.76360465,6.63790654 9.76360465,6.37928972 C9.76360465,6.12179439 9.76088372,5.7108785 9.76088372,5.7108785 L9.12418605,5.7108785 L9.12418605,10.9186542 L6.16041279,10.9186542 C6.16041279,11.2779813 5.69989535,11.3253084 5.62552326,11.3253084 C5.55115116,11.3253084 5.09925,11.2620561 5.09925,10.9186542 L2.13298256,10.9186542 L2.13298256,5.70728972 L1.52281395,5.70728972 C1.53075,5.81854206 1.521,6.11820561 1.521,6.37592523 C1.521,6.63431776 0.996767442,6.57914019 0.996767442,7.16971963 C0.996767442,7.77779439 1.51578488,7.74100935 1.51578488,7.99940187 L1.51578488,9.61323364 C1.51578488,9.8164486 0.993139535,9.83484112 0.993139535,10.3937944 C0.993139535,10.8511402 1.53256395,10.9047477 1.53256395,11.2183178 C1.53959302,11.2261682 1.53347093,12.1094579 1.53347093,12.1094579 L9.75022674,12.1128224 C9.75022674,12.1128224 9.74410465,11.229757 9.75113372,11.2210093 C9.75113372,10.9081121 10.2905581,10.854729 10.2905581,10.3973832 C10.2905581,9.83842991 9.76904651,9.82003738 9.76904651,9.61682243 L9.76904651,9.61682243 Z M32.1725058,10.3386168 C32.4409709,10.2204112 33.0148605,9.9348785 33.3586047,9.9348785 L33.3586047,5.41906542 C32.9148663,5.15708411 32.4727151,5.06781308 32.0738721,5.11020561 C32.0103837,5.12164486 31.9482558,5.13398131 31.8908895,5.15080374 C31.5194826,5.27349533 31.0789186,5.62317757 30.6154535,5.70033645 L30.6154535,10.4314766 C30.6154535,10.4314766 31.9051744,10.4570467 32.1725058,10.3386168 L32.1725058,10.3386168 Z M36.6064884,10.4314766 L36.6064884,5.70033645 C36.0706919,5.61106542 35.5639186,5.15461682 35.1619012,5.11065421 C34.8870872,5.07970093 34.5900523,5.11738318 34.2871221,5.22504673 C34.1458605,5.29076636 34.0175233,5.36231776 33.8832907,5.40964486 C33.8769419,5.41345794 33.8703663,5.41547664 33.8642442,5.41906542 L33.8642442,9.9348785 C34.2079884,9.9348785 34.7818779,10.2204112 35.05125,10.3386168 C35.3185814,10.4570467 36.6064884,10.4314766 36.6064884,10.4314766 L36.6064884,10.4314766 Z M37.7588023,9.61682243 L37.7588023,8.00299065 C37.7588023,7.74437383 38.2778198,7.78115888 38.2778198,7.17330841 C38.2778198,6.58272897 37.7542674,6.63790654 37.7542674,6.37928972 C37.7542674,6.12179439 37.7517733,5.7108785 37.7517733,5.7108785 L37.1139419,5.7108785 L37.1139419,10.9186542 L34.1513023,10.9186542 C34.1513023,11.2779813 33.6907849,11.3253084 33.616186,11.3253084 C33.541814,11.3253084 33.0892326,11.2620561 33.0892326,10.9186542 L30.1238721,10.9186542 L30.1238721,5.70728972 L29.5137035,5.70728972 C29.5207326,5.81854206 29.5109826,6.11820561 29.5109826,6.37592523 C29.5109826,6.63431776 28.9874302,6.57914019 28.9874302,7.16971963 C28.9874302,7.77779439 29.5055407,7.74100935 29.5055407,7.99940187 L29.5055407,9.61323364 C29.5055407,9.8164486 28.9840291,9.83484112 28.9840291,10.3937944 C28.9840291,10.8511402 29.5234535,10.9047477 29.5234535,11.2183178 C29.5304826,11.2261682 29.5243605,12.1094579 29.5243605,12.1094579 L37.7411163,12.1128224 C37.7411163,12.1128224 37.7347674,11.229757 37.7420233,11.2210093 C37.7420233,10.9081121 38.2814477,10.854729 38.2814477,10.3973832 C38.2814477,9.83842991 37.7588023,9.82003738 37.7588023,9.61682243 L37.7588023,9.61682243 Z" id="Fill-40" fill="#FFFFFF"></path>
            </g>
        
        </g>
    </g>
</svg>